<svg width="50" height="65" viewBox="0 0 50 65" fill="none" xmlns="http://www.w3.org/2000/svg">
<path d="M21.875 64.5C20.2174 64.5 18.6277 63.887 17.4556 62.7959C16.2835 61.7048 15.625 60.2249 15.625 58.6818V52.8636H34.375V58.6818C34.375 60.2249 33.7165 61.7048 32.5444 62.7959C31.3723 63.887 29.7826 64.5 28.125 64.5H21.875ZM25 0.5C27.2188 0.5 29.3438 0.761818 31.4062 1.25636C35.0625 5.82364 37.5 14.2018 37.5 23.7727C37.5 30.4055 36.3125 36.4855 34.375 44.1364C34.375 45.6794 33.7165 47.1593 32.5444 48.2504C31.3723 49.3416 29.7826 49.9545 28.125 49.9545H21.875C20.2174 49.9545 18.6277 49.3416 17.4556 48.2504C16.2835 47.1593 15.625 45.6794 15.625 44.1364C13.6875 36.4855 12.5 30.4055 12.5 23.7727C12.5 14.2018 14.9375 5.82364 18.5938 1.25636C20.6562 0.761818 22.7812 0.5 25 0.5ZM50 20.8636C50 30.1145 44.2188 43.9036 35.8125 47.6564C38.7812 42.3618 40.625 32.0055 40.625 23.7727C40.625 15.54 38.7812 8.09273 35.8125 2.79818C44.2188 6.55091 50 11.6127 50 20.8636ZM0 20.8636C0 11.6127 5.78125 6.55091 14.1875 2.79818C11.2188 8.09273 9.375 15.54 9.375 23.7727C9.375 32.0055 11.2188 42.3618 14.1875 47.6564C5.78125 43.9036 0 30.1145 0 20.8636Z" fill="#FF9900"/>
</svg>
