<svg width="65" height="63" viewBox="0 0 65 63" fill="none" xmlns="http://www.w3.org/2000/svg">
<path d="M26.548 0C28.8104 0 30.1 2.21871 30.1 4.44687V18.1027H27.236C26.679 16.7466 25.6605 15.6236 24.3551 14.9261C23.0496 14.2285 21.5384 13.9998 20.0805 14.2792C18.6226 14.5587 17.3088 15.3288 16.3642 16.4576C15.4196 17.5864 14.903 19.0036 14.903 20.4663C14.903 21.9291 15.4196 23.3463 16.3642 24.4751C17.3088 25.6039 18.6226 26.374 20.0805 26.6534C21.5384 26.9328 23.0496 26.7042 24.3551 26.0066C25.6605 25.309 26.679 24.186 27.236 22.83H30.1V57.1759C30.1 59.0542 29.2936 60.9231 27.5944 61.7772C26.0536 62.5719 24.3417 62.9912 22.6024 63C17.7704 63 14.1768 60.5922 11.8632 57.7432C10.2638 55.7753 9.14681 53.4706 8.5992 51.0083C7.10496 50.5737 5.72103 49.8326 4.5384 48.8337C2.2664 46.9081 0.5 43.8195 0.5 39.2686C0.5 36.8892 0.6728 34.8155 1.108 33.0726H14.58C16.7496 33.0726 18.548 34.6484 18.852 36.7001C17.4805 37.2589 16.3489 38.2698 15.6508 39.5597C14.9527 40.8496 14.7315 42.3384 15.0251 43.7713C15.3186 45.2042 16.1087 46.492 17.2601 47.4143C18.4115 48.3367 19.8527 48.8363 21.3368 48.8275C22.821 48.8188 24.2559 48.3023 25.3961 47.3665C26.5362 46.4306 27.3106 45.1336 27.5868 43.6974C27.863 42.2612 27.6238 40.7751 26.9101 39.4935C26.1964 38.2118 25.0525 37.2144 23.6744 36.6717C23.5063 34.4093 22.4752 32.2933 20.7882 30.7488C19.1012 29.2043 16.8833 28.3456 14.58 28.3453H3.828C4.30625 27.9539 4.83986 27.6333 5.412 27.3935C5.08515 26.2348 4.89404 25.0431 4.8424 23.8417C4.7368 21.5253 5.0888 19.1143 5.7864 16.9681C6.4776 14.8565 7.572 12.7985 9.108 11.3772C10.069 10.4491 11.2908 9.82654 12.6152 9.59024C13.252 6.94292 14.8744 4.75573 16.9448 3.17049C19.604 1.12826 23.0888 0 26.5448 0M34.9 47.2547H40.18C42.5988 47.2547 44.9185 46.3084 46.6288 44.624C48.3391 42.9395 49.3 40.6549 49.3 38.2727V32.6157C50.6768 32.0671 51.8171 31.064 52.5254 29.7783C53.2337 28.4926 53.4659 27.0043 53.1822 25.5685C52.8984 24.1326 52.1165 22.8387 50.9704 21.9084C49.8242 20.9781 48.3852 20.4693 46.9 20.4693C45.4148 20.4693 43.9758 20.9781 42.8296 21.9084C41.6835 22.8387 40.9016 24.1326 40.6178 25.5685C40.3341 27.0043 40.5663 28.4926 41.2746 29.7783C41.9829 31.064 43.1231 32.0671 44.5 32.6157V38.2727C44.5 39.4011 44.0449 40.4833 43.2347 41.2812C42.4245 42.0791 41.3257 42.5274 40.18 42.5274H34.9V4.44687C34.9 2.21871 36.1896 0 38.452 0C41.9144 0 45.396 1.12826 48.0552 3.17049C50.1256 4.75573 51.748 6.94607 52.3848 9.59024C53.7288 9.81085 54.9256 10.4853 55.892 11.3772C57.428 12.7985 58.5224 14.8534 59.2136 16.9681C59.9112 19.1143 60.2632 21.5253 60.1576 23.8417C60.1032 25.0267 59.9272 26.2369 59.588 27.3935L59.7992 27.488C60.9832 28.0364 61.9432 28.8968 62.66 30.0408C64.02 32.1996 64.5 35.3071 64.5 39.2686C64.5 43.8227 62.7336 46.9144 60.4616 48.8337C59.278 49.833 57.893 50.5741 56.3976 51.0083C55.8509 53.4703 54.7351 55.775 53.1368 57.7432C50.8232 60.5922 47.2296 63 42.3944 63C40.6553 62.9922 38.9435 62.574 37.4024 61.7803C35.7064 60.9231 34.9 59.0542 34.9 57.1759V47.2547ZM19.7 20.4663C19.7 20.0484 19.8686 19.6476 20.1686 19.3521C20.4687 19.0566 20.8757 18.8905 21.3 18.8905C21.7243 18.8905 22.1313 19.0566 22.4314 19.3521C22.7314 19.6476 22.9 20.0484 22.9 20.4663C22.9 20.8843 22.7314 21.2851 22.4314 21.5806C22.1313 21.8761 21.7243 22.0421 21.3 22.0421C20.8757 22.0421 20.4687 21.8761 20.1686 21.5806C19.8686 21.2851 19.7 20.8843 19.7 20.4663ZM21.3 40.9516C20.8757 40.9516 20.4687 41.1176 20.1686 41.4131C19.8686 41.7086 19.7 42.1094 19.7 42.5274C19.7 42.9453 19.8686 43.3461 20.1686 43.6416C20.4687 43.9371 20.8757 44.1031 21.3 44.1031C21.7243 44.1031 22.1313 43.9371 22.4314 43.6416C22.7314 43.3461 22.9 42.9453 22.9 42.5274C22.9 42.1094 22.7314 41.7086 22.4314 41.4131C22.1313 41.1176 21.7243 40.9516 21.3 40.9516ZM45.3 26.7695C45.3 27.1874 45.4686 27.5882 45.7686 27.8837C46.0687 28.1793 46.4757 28.3453 46.9 28.3453C47.3243 28.3453 47.7313 28.1793 48.0314 27.8837C48.3314 27.5882 48.5 27.1874 48.5 26.7695C48.5 26.3516 48.3314 25.9507 48.0314 25.6552C47.7313 25.3597 47.3243 25.1937 46.9 25.1937C46.4757 25.1937 46.0687 25.3597 45.7686 25.6552C45.4686 25.9507 45.3 26.3516 45.3 26.7695Z" fill="#FF9900"/>
</svg>
